<svg width="1755" height="873" viewBox="0 0 1755 873" fill="none" xmlns="http://www.w3.org/2000/svg">
<rect width="1755" height="873" fill="#F5F5F5"/>
<g clip-path="url(#clip0_0_1)">
<rect width="1755" height="873" fill="#E4E4E4"/>
<rect x="414" y="169" width="696" height="322" rx="9" fill="white" stroke="#3E9E4C" stroke-width="2"/>
<rect x="414" y="18" width="1321" height="63" rx="9" fill="white" stroke="#3E9E4C" stroke-width="2"/>
<rect x="414" y="18" width="1321" height="63" rx="9" fill="white" stroke="#3E9E4C" stroke-width="2"/>
<rect x="414" y="94" width="1321" height="60" rx="9" fill="white" stroke="#3E9E4C" stroke-width="2"/>
<rect x="1131" y="168" width="292" height="322" rx="9" fill="white" stroke="#3E9E4C" stroke-width="2"/>
<rect x="1443" y="168" width="292" height="322" rx="9" fill="white" stroke="#3E9E4C" stroke-width="2"/>
<g filter="url(#filter0_d_0_1)">
<rect x="100" y="18" width="298" height="835" rx="9" fill="white" stroke="#3E9E4C" stroke-width="2"/>
<rect x="100" y="804.491" width="298" height="48.5086" fill="url(#paint0_linear_0_1)" stroke="#3E9E4C" stroke-width="2"/>
</g>
<g filter="url(#filter1_d_0_1)">
<rect x="1" y="18" width="84" height="835" rx="9" fill="white" stroke="#3E9E4C" stroke-width="2"/>
<rect x="1" y="804.491" width="84" height="48.5086" fill="url(#paint1_linear_0_1)" stroke="#3E9E4C" stroke-width="2"/>
<g filter="url(#filter2_d_0_1)">
<circle cx="43.5" cy="292.5" r="37.5" fill="white"/>
<circle cx="43.5" cy="292.5" r="37.5" fill="#CEFFC8"/>
<circle cx="43.5" cy="292.5" r="37.5" fill="#3E9E4C" fill-opacity="0.5"/>
</g>
</g>
<rect x="414" y="503" width="1321" height="350" rx="9" fill="white" stroke="#3E9E4C" stroke-width="2"/>
<rect x="414" y="833.759" width="1321" height="19.2414" fill="url(#paint2_linear_0_1)" stroke="#3E9E4C" stroke-width="2"/>
<rect x="414" y="18" width="1321" height="63" rx="9" fill="white" stroke="#3E9E4C" stroke-width="2"/>
<rect x="127.5" y="517.5" width="244" height="71" rx="19.5" fill="#67ADFE" fill-opacity="0.32" stroke="#3E9E4C"/>
<path d="M171.075 544.5V559.175H178.875V562H167.7V544.5H171.075ZM182.903 549.5H186.103V562H182.903V549.5ZM184.528 547.9C183.928 547.9 183.436 547.717 183.053 547.35C182.669 546.967 182.478 546.5 182.478 545.95C182.478 545.4 182.669 544.942 183.053 544.575C183.436 544.192 183.928 544 184.528 544C185.094 544 185.569 544.192 185.953 544.575C186.353 544.942 186.553 545.4 186.553 545.95C186.553 546.5 186.353 546.967 185.953 547.35C185.569 547.717 185.094 547.9 184.528 547.9ZM191.107 549.5H194.007L194.232 550.725C194.632 550.308 195.107 549.975 195.657 549.725C196.223 549.458 196.84 549.325 197.507 549.325C198.307 549.325 199.04 549.5 199.707 549.85C200.373 550.183 200.907 550.667 201.307 551.3C201.757 550.683 202.34 550.2 203.057 549.85C203.79 549.5 204.582 549.325 205.432 549.325C206.415 549.325 207.265 549.533 207.982 549.95C208.715 550.367 209.282 550.975 209.682 551.775C210.082 552.558 210.282 553.533 210.282 554.7V562H207.082V555.125C207.082 554.175 206.873 553.458 206.457 552.975C206.04 552.492 205.448 552.25 204.682 552.25C203.898 552.25 203.282 552.5 202.832 553C202.398 553.5 202.182 554.225 202.182 555.175V562H198.982V555.125C198.982 554.175 198.79 553.458 198.407 552.975C198.04 552.492 197.473 552.25 196.707 552.25C195.923 552.25 195.323 552.5 194.907 553C194.507 553.483 194.307 554.2 194.307 555.15V562H191.107V549.5ZM217.477 560.125L217.877 560.075V567H214.677V549.5H217.577L217.777 551.05C218.144 550.567 218.66 550.158 219.327 549.825C219.994 549.492 220.76 549.325 221.627 549.325C222.71 549.325 223.669 549.592 224.502 550.125C225.335 550.658 225.985 551.408 226.452 552.375C226.935 553.325 227.177 554.45 227.177 555.75C227.177 557.05 226.935 558.183 226.452 559.15C225.985 560.117 225.335 560.867 224.502 561.4C223.685 561.917 222.727 562.175 221.627 562.175C220.66 562.175 219.819 561.975 219.102 561.575C218.402 561.175 217.86 560.692 217.477 560.125ZM223.727 555.75C223.727 554.7 223.452 553.858 222.902 553.225C222.369 552.575 221.669 552.25 220.802 552.25C220.269 552.25 219.777 552.392 219.327 552.675C218.894 552.942 218.544 553.333 218.277 553.85C218.01 554.35 217.877 554.983 217.877 555.75C217.877 556.5 218.01 557.133 218.277 557.65C218.544 558.167 218.894 558.567 219.327 558.85C219.777 559.117 220.269 559.25 220.802 559.25C221.669 559.25 222.369 558.933 222.902 558.3C223.452 557.65 223.727 556.8 223.727 555.75ZM238.468 562L238.218 560.475C237.802 560.992 237.327 561.4 236.793 561.7C236.277 562 235.577 562.15 234.693 562.15C233.86 562.15 233.127 562.008 232.493 561.725C231.877 561.425 231.393 561.017 231.043 560.5C230.693 559.967 230.518 559.342 230.518 558.625C230.518 557.575 230.893 556.708 231.643 556.025C232.41 555.325 233.56 554.883 235.093 554.7L238.218 554.35V553.475C238.218 553.125 238.06 552.8 237.743 552.5C237.427 552.2 236.927 552.05 236.243 552.05C235.643 552.05 235.118 552.2 234.668 552.5C234.235 552.783 233.943 553.217 233.793 553.8L231.043 552.8C231.377 551.683 232.01 550.825 232.943 550.225C233.877 549.625 235.027 549.325 236.393 549.325C238.06 549.325 239.31 549.742 240.143 550.575C240.993 551.392 241.418 552.475 241.418 553.825V562H238.468ZM238.218 556.575L235.518 556.925C234.968 556.992 234.552 557.158 234.268 557.425C233.985 557.675 233.843 557.983 233.843 558.35C233.843 558.7 233.985 559 234.268 559.25C234.552 559.483 234.952 559.6 235.468 559.6C236.052 559.6 236.543 559.492 236.943 559.275C237.36 559.058 237.677 558.742 237.893 558.325C238.11 557.908 238.218 557.392 238.218 556.775V556.575ZM245.851 549.5H248.751L248.976 551.1C249.326 550.667 249.717 550.317 250.151 550.05C250.601 549.767 251.092 549.575 251.626 549.475C252.159 549.358 252.717 549.367 253.301 549.5V552.5C252.851 552.35 252.376 552.308 251.876 552.375C251.392 552.442 250.934 552.617 250.501 552.9C250.084 553.183 249.734 553.592 249.451 554.125C249.184 554.642 249.051 555.3 249.051 556.1V562H245.851V549.5ZM265.505 544.5H277.805V547.325H268.88V551.775H275.555V554.5H268.88V562H265.505V544.5ZM282.075 549.5H285.275V562H282.075V549.5ZM283.7 547.9C283.1 547.9 282.608 547.717 282.225 547.35C281.841 546.967 281.65 546.5 281.65 545.95C281.65 545.4 281.841 544.942 282.225 544.575C282.608 544.192 283.1 544 283.7 544C284.266 544 284.741 544.192 285.125 544.575C285.525 544.942 285.725 545.4 285.725 545.95C285.725 546.5 285.525 546.967 285.125 547.35C284.741 547.717 284.266 547.9 283.7 547.9ZM290.279 544H293.479V562H290.279V544ZM298.953 549.5V546H302.203V549.5H304.953V552.325H302.203V557.4C302.203 558.05 302.336 558.508 302.603 558.775C302.886 559.042 303.236 559.183 303.653 559.2C304.086 559.217 304.52 559.192 304.953 559.125V561.875C304.186 562.042 303.436 562.092 302.703 562.025C301.986 561.958 301.345 561.767 300.778 561.45C300.211 561.117 299.761 560.617 299.428 559.95C299.111 559.283 298.953 558.433 298.953 557.4V552.325H297.178V549.5H298.953ZM308.733 549.5H311.633L311.858 551.1C312.208 550.667 312.599 550.317 313.033 550.05C313.483 549.767 313.974 549.575 314.508 549.475C315.041 549.358 315.599 549.367 316.183 549.5V552.5C315.733 552.35 315.258 552.308 314.758 552.375C314.274 552.442 313.816 552.617 313.383 552.9C312.966 553.183 312.616 553.592 312.333 554.125C312.066 554.642 311.933 555.3 311.933 556.1V562H308.733V549.5ZM325.405 562.175C324.188 562.175 323.105 561.917 322.155 561.4C321.205 560.867 320.455 560.125 319.905 559.175C319.371 558.208 319.105 557.075 319.105 555.775C319.105 554.458 319.38 553.317 319.93 552.35C320.496 551.383 321.263 550.642 322.23 550.125C323.196 549.592 324.28 549.325 325.48 549.325C326.68 549.325 327.763 549.592 328.73 550.125C329.696 550.642 330.463 551.383 331.03 552.35C331.596 553.3 331.88 554.425 331.88 555.725C331.88 557.042 331.588 558.183 331.005 559.15C330.438 560.117 329.663 560.867 328.68 561.4C327.713 561.917 326.621 562.175 325.405 562.175ZM325.38 559.3C325.896 559.3 326.388 559.175 326.855 558.925C327.321 558.658 327.705 558.267 328.005 557.75C328.305 557.217 328.455 556.542 328.455 555.725C328.455 554.942 328.313 554.292 328.03 553.775C327.746 553.242 327.371 552.85 326.905 552.6C326.455 552.333 325.963 552.2 325.43 552.2C324.913 552.2 324.43 552.333 323.98 552.6C323.546 552.85 323.196 553.242 322.93 553.775C322.68 554.292 322.555 554.958 322.555 555.775C322.555 556.558 322.68 557.217 322.93 557.75C323.18 558.267 323.521 558.658 323.955 558.925C324.388 559.175 324.863 559.3 325.38 559.3Z" fill="#3E9E4C"/>
<g filter="url(#filter3_d_0_1)">
<circle cx="43.5" cy="130.5" r="37.5" fill="white"/>
<circle cx="43.5" cy="130.5" r="37.5" fill="#CEFFC8"/>
<circle cx="43.5" cy="130.5" r="37.5" fill="#3E9E4C" fill-opacity="0.5"/>
</g>
<path d="M37 151V131H49V151M25 125L43 111L61 125V147C61 148.061 60.5786 149.078 59.8284 149.828C59.0783 150.579 58.0609 151 57 151H29C27.9391 151 26.9217 150.579 26.1716 149.828C25.4214 149.078 25 148.061 25 147V125Z" stroke="#F3F3F3" stroke-width="4" stroke-linecap="round" stroke-linejoin="round"/>
<path d="M31.9565 311C31.4391 311 31.0054 310.808 30.6554 310.425C30.3054 310.042 30.1304 309.567 30.1304 309V304.9C29.5826 304.233 29.1413 303.492 28.8065 302.675C28.4717 301.858 28.3044 300.967 28.3044 300V281C28.3044 278.233 29.4761 276.208 31.8196 274.925C34.163 273.642 37.8609 273 42.913 273C48.1478 273 51.8913 273.617 54.1435 274.85C56.3957 276.083 57.5217 278.133 57.5217 281V300C57.5217 300.967 57.3543 301.858 57.0196 302.675C56.6848 303.492 56.2435 304.233 55.6957 304.9V309C55.6957 309.567 55.5207 310.042 55.1707 310.425C54.8207 310.808 54.387 311 53.8696 311H52.0435C51.5261 311 51.0924 310.808 50.7424 310.425C50.3924 310.042 50.2174 309.567 50.2174 309V307H35.6087V309C35.6087 309.567 35.4337 310.042 35.0837 310.425C34.7337 310.808 34.3 311 33.7826 311H31.9565ZM31.9565 289H53.8696V283H31.9565V289ZM36.5217 301C37.2826 301 37.9294 300.708 38.462 300.125C38.9946 299.542 39.2609 298.833 39.2609 298C39.2609 297.167 38.9946 296.458 38.462 295.875C37.9294 295.292 37.2826 295 36.5217 295C35.7609 295 35.1141 295.292 34.5815 295.875C34.0489 296.458 33.7826 297.167 33.7826 298C33.7826 298.833 34.0489 299.542 34.5815 300.125C35.1141 300.708 35.7609 301 36.5217 301ZM49.3043 301C50.0652 301 50.712 300.708 51.2446 300.125C51.7772 299.542 52.0435 298.833 52.0435 298C52.0435 297.167 51.7772 296.458 51.2446 295.875C50.712 295.292 50.0652 295 49.3043 295C48.5435 295 47.8967 295.292 47.3641 295.875C46.8315 296.458 46.5652 297.167 46.5652 298C46.5652 298.833 46.8315 299.542 47.3641 300.125C47.8967 300.708 48.5435 301 49.3043 301ZM32.7783 279H53.2304C52.7739 278.433 51.7924 277.958 50.2859 277.575C48.7794 277.192 46.3522 277 43.0044 277C39.7478 277 37.3663 277.208 35.8598 277.625C34.3533 278.042 33.3261 278.5 32.7783 279ZM35.6087 303H50.2174C51.2217 303 52.0815 302.608 52.7967 301.825C53.512 301.042 53.8696 300.1 53.8696 299V293H31.9565V299C31.9565 300.1 32.3141 301.042 33.0294 301.825C33.7446 302.608 34.6044 303 35.6087 303Z" fill="#FEF7FF"/>
</g>
<defs>
<filter id="filter0_d_0_1" x="95" y="17" width="308" height="845" filterUnits="userSpaceOnUse" color-interpolation-filters="sRGB">
<feFlood flood-opacity="0" result="BackgroundImageFix"/>
<feColorMatrix in="SourceAlpha" type="matrix" values="0 0 0 0 0 0 0 0 0 0 0 0 0 0 0 0 0 0 127 0" result="hardAlpha"/>
<feOffset dy="4"/>
<feGaussianBlur stdDeviation="2"/>
<feComposite in2="hardAlpha" operator="out"/>
<feColorMatrix type="matrix" values="0 0 0 0 0 0 0 0 0 0 0 0 0 0 0 0 0 0 0.25 0"/>
<feBlend mode="normal" in2="BackgroundImageFix" result="effect1_dropShadow_0_1"/>
<feBlend mode="normal" in="SourceGraphic" in2="effect1_dropShadow_0_1" result="shape"/>
</filter>
<filter id="filter1_d_0_1" x="-4" y="17" width="94" height="845" filterUnits="userSpaceOnUse" color-interpolation-filters="sRGB">
<feFlood flood-opacity="0" result="BackgroundImageFix"/>
<feColorMatrix in="SourceAlpha" type="matrix" values="0 0 0 0 0 0 0 0 0 0 0 0 0 0 0 0 0 0 127 0" result="hardAlpha"/>
<feOffset dy="4"/>
<feGaussianBlur stdDeviation="2"/>
<feComposite in2="hardAlpha" operator="out"/>
<feColorMatrix type="matrix" values="0 0 0 0 0 0 0 0 0 0 0 0 0 0 0 0 0 0 0.25 0"/>
<feBlend mode="normal" in2="BackgroundImageFix" result="effect1_dropShadow_0_1"/>
<feBlend mode="normal" in="SourceGraphic" in2="effect1_dropShadow_0_1" result="shape"/>
</filter>
<filter id="filter2_d_0_1" x="2" y="255" width="83" height="83" filterUnits="userSpaceOnUse" color-interpolation-filters="sRGB">
<feFlood flood-opacity="0" result="BackgroundImageFix"/>
<feColorMatrix in="SourceAlpha" type="matrix" values="0 0 0 0 0 0 0 0 0 0 0 0 0 0 0 0 0 0 127 0" result="hardAlpha"/>
<feOffset dy="4"/>
<feGaussianBlur stdDeviation="2"/>
<feComposite in2="hardAlpha" operator="out"/>
<feColorMatrix type="matrix" values="0 0 0 0 0 0 0 0 0 0 0 0 0 0 0 0 0 0 0.25 0"/>
<feBlend mode="normal" in2="BackgroundImageFix" result="effect1_dropShadow_0_1"/>
<feBlend mode="normal" in="SourceGraphic" in2="effect1_dropShadow_0_1" result="shape"/>
</filter>
<filter id="filter3_d_0_1" x="2" y="93" width="83" height="83" filterUnits="userSpaceOnUse" color-interpolation-filters="sRGB">
<feFlood flood-opacity="0" result="BackgroundImageFix"/>
<feColorMatrix in="SourceAlpha" type="matrix" values="0 0 0 0 0 0 0 0 0 0 0 0 0 0 0 0 0 0 127 0" result="hardAlpha"/>
<feOffset dy="4"/>
<feGaussianBlur stdDeviation="2"/>
<feComposite in2="hardAlpha" operator="out"/>
<feColorMatrix type="matrix" values="0 0 0 0 0 0 0 0 0 0 0 0 0 0 0 0 0 0 0.25 0"/>
<feBlend mode="normal" in2="BackgroundImageFix" result="effect1_dropShadow_0_1"/>
<feBlend mode="normal" in="SourceGraphic" in2="effect1_dropShadow_0_1" result="shape"/>
</filter>
<linearGradient id="paint0_linear_0_1" x1="99" y1="828.746" x2="399" y2="828.746" gradientUnits="userSpaceOnUse">
<stop offset="0.1001" stop-color="#3E9E4C"/>
<stop offset="1" stop-color="#CEFFC8"/>
</linearGradient>
<linearGradient id="paint1_linear_0_1" x1="0" y1="828.746" x2="86" y2="828.746" gradientUnits="userSpaceOnUse">
<stop offset="0.1001" stop-color="#3E9E4C"/>
<stop offset="1" stop-color="#CEFFC8"/>
</linearGradient>
<linearGradient id="paint2_linear_0_1" x1="413" y1="843.379" x2="1736" y2="843.379" gradientUnits="userSpaceOnUse">
<stop stop-color="#3E9E4C"/>
<stop offset="1" stop-color="#CEFFC8"/>
</linearGradient>
<clipPath id="clip0_0_1">
<rect width="1755" height="873" fill="white"/>
</clipPath>
</defs>
</svg>
